<svg width="24" height="24" viewBox="0 0 24 24" fill="none" xmlns="http://www.w3.org/2000/svg">
<path fill-rule="evenodd" clip-rule="evenodd" d="M3 2.57143C2.88634 2.57143 2.77733 2.61658 2.69695 2.69695C2.61658 2.77733 2.57143 2.88634 2.57143 3V5.57143C2.57143 6.2815 1.99579 6.85714 1.28571 6.85714C0.575633 6.85714 0 6.2815 0 5.57143V3C0 2.20435 0.316071 1.44129 0.878679 0.878679C1.44129 0.316071 2.20435 0 3 0H5.57143C6.2815 0 6.85714 0.575633 6.85714 1.28571C6.85714 1.99579 6.2815 2.57143 5.57143 2.57143H3ZM22.7143 17.1429C23.4243 17.1429 24 17.7185 24 18.4286V21C24 21.7956 23.6839 22.5586 23.1213 23.1213C22.5586 23.6839 21.7956 24 21 24H18.4286C17.7185 24 17.1429 23.4243 17.1429 22.7143C17.1429 22.0042 17.7185 21.4286 18.4286 21.4286H21C21.1137 21.4286 21.2227 21.3835 21.3031 21.3031C21.3835 21.2227 21.4286 21.1137 21.4286 21V18.4286C21.4286 17.7185 22.0042 17.1429 22.7143 17.1429ZM2.57143 18.4286C2.57143 17.7185 1.99579 17.1429 1.28571 17.1429C0.575633 17.1429 0 17.7185 0 18.4286V21C0 21.7956 0.316071 22.5586 0.878679 23.1213C1.44129 23.6839 2.20435 24 3 24H5.57143C6.2815 24 6.85714 23.4243 6.85714 22.7143C6.85714 22.0042 6.2815 21.4286 5.57143 21.4286H3C2.88634 21.4286 2.77733 21.3835 2.69695 21.3031C2.61658 21.2227 2.57143 21.1137 2.57143 21V18.4286ZM17.1429 1.28571C17.1429 0.575633 17.7185 0 18.4286 0H21C21.7956 0 22.5586 0.316071 23.1213 0.878679C23.6839 1.44129 24 2.20435 24 3V5.57143C24 6.2815 23.4243 6.85714 22.7143 6.85714C22.0042 6.85714 21.4286 6.2815 21.4286 5.57143V3C21.4286 2.88634 21.3835 2.77733 21.3031 2.69695C21.2227 2.61658 21.1137 2.57143 21 2.57143H18.4286C17.7185 2.57143 17.1429 1.99579 17.1429 1.28571ZM10.7143 6.85714C8.58405 6.85714 6.85714 8.58405 6.85714 10.7143C6.85714 12.8445 8.58405 14.5714 10.7143 14.5714C12.8445 14.5714 14.5714 12.8445 14.5714 10.7143C14.5714 8.58405 12.8445 6.85714 10.7143 6.85714ZM4.28571 10.7143C4.28571 7.16388 7.16388 4.28571 10.7143 4.28571C14.2647 4.28571 17.1429 7.16388 17.1429 10.7143C17.1429 12.0245 16.7509 13.2432 16.0778 14.2595L18.9091 17.0909C19.4112 17.593 19.4112 18.407 18.9091 18.9091C18.407 19.4112 17.593 19.4112 17.0909 18.9091L14.2595 16.0778C13.2432 16.7509 12.0245 17.1429 10.7143 17.1429C7.16388 17.1429 4.28571 14.2647 4.28571 10.7143Z" fill="#FDFDFD"/>
</svg>
